# xmcd CD database file
#
# Track frame offsets:
#	150
#	19395
#	30022
#	50445
#	70490
#	90920
#	109512
#	129897
#	147000
#	165770
#	187850
#	206730
#	222187
#	238600
#	263362
#
# Disc length: 3774 seconds
#
# Revision: 0
# Processed by: cddbd v1.5.1PL2 Copyright (c) Steve Scherf et al.
# Submitted via: CDex 1.50beta8
#
DISCID=b40ebc0f
DTITLE=Various Artist - わがまま☆フェアリーミルモでポン！ さよならミルモ!! ベリーベストソングス
DYEAR=2005
DGENRE=Anime
TTITLE0=パーキッツ/らびゅ らびゅ
TTITLE1=ミルモ/オレは最高ミルモだぜぃ
TTITLE2=南楓/WITH
TTITLE3=ミルモ＆ヤシチ/お菓子なふたり
TTITLE4=Sana/僕のトナリ
TTITLE5=パーキッツ/あしたになあれ
TTITLE6=リルム＆かえで/ふたりゴト
TTITLE7=結木摂/Tears For Smile
TTITLE8=妖精忍者〜ヤシチ、サスケ、ハンゾー、ヤマネ〜/忍−SHINOBI−
TTITLE9=Sana/Brownie
TTITLE10=パーキッツ/シュガー・シュガー
TTITLE11=ムルモ/Happy Happy Day shu shu☆
TTITLE12=森下はるか/タカラモノ
TTITLE13=かえで＆ゆうき＆あずみ＆まつたけ/Ring Ring Christmas
TTITLE14=Sana/チェリ・ガール
EXTD=YEAR: 2005
EXTT0=
EXTT1=
EXTT2=
EXTT3=
EXTT4=
EXTT5=
EXTT6=
EXTT7=
EXTT8=
EXTT9=
EXTT10=
EXTT11=
EXTT12=
EXTT13=
EXTT14=
PLAYORDER=
